# xmcd
#
# Track frame offsets:
#	150
#	15849
#	36202
#	49921
#	63695
#	79657
#	93514
#	100422
#	114883
#	128833
#	147289
#	160945
#	177873
#	191540
#	215915
#
# Disc length: 3198 seconds
#
# Revision: 2
# Processed by: cddbd v1.5.2PL0 Copyright (c) Steve Scherf et al.
# Submitted via: EZCDAudioConverter 7.1.4.1
#
DISCID=cd0c7c0f
DTITLE=Various Artist - Lännen Tiellä
DYEAR=2004
DGENRE=Country
TTITLE0=Kari Tapio - Peluri (Gambler)
TTITLE1=Matti Esko - Huomenta Suomi (City Of New Orleans)
TTITLE2=P. Mustajärvi, J. Kääriäinen, H. Marstio, T. Sorsakoski - Mä elän viel
TTITLE2=äkin (The Highwayman)
TTITLE3=Rauli Badding Somerjoki - Suon kulkija
TTITLE4=Freud, Marx, Engels and Jung - Danny Show (Road To Bayamon)
TTITLE5=J. Karjalainen and Mustat Lasit - Tiellä taas
TTITLE6=Edu Kettunen - Rodeo
TTITLE7=Topi Sorakoski and Kulkukoirat - Mieron tie
TTITLE8=Pate Mustajärvi - Häkki heilahtaa (Folsom Prison Blues)
TTITLE9=Matti Esko - Rekkamies
TTITLE10=Badding Rockers - Kohtalon tähti (Flaming Star)
TTITLE11=Kari Tapio - Sinä sunnuntaina silloin (Sunday Mornin' Comin' Down)
TTITLE12=Tuomari Nurmio Ja Köyhien Ystävät - Makasiinin luona (Waiting For A T
TTITLE12=rain)
TTITLE13=Kultakurkut and Bablo - Taivas sinivalkoinen (Jersey Girl)
TTITLE14=Olli Haavisto and J. Karjalainen - Keltaruusut (Yellow Roses)
EXTD=
EXTT0=
EXTT1=
EXTT2=
EXTT3=
EXTT4=
EXTT5=
EXTT6=
EXTT7=
EXTT8=
EXTT9=
EXTT10=
EXTT11=
EXTT12=
EXTT13=
EXTT14=
PLAYORDER=
